<svg width="20" height="19" viewBox="0 0 20 19" fill="current" xmlns="http://www.w3.org/2000/svg">
<path d="M13.481 12.102H4.95103C4.84349 12.102 4.74035 12.1447 4.66431 12.2208C4.58826 12.2968 4.54553 12.4 4.54553 12.5075C4.54553 12.6151 4.58826 12.7182 4.66431 12.7943C4.74035 12.8703 4.84349 12.913 4.95103 12.913H13.481C13.5886 12.913 13.6917 12.8703 13.7678 12.7943C13.8438 12.7182 13.8865 12.6151 13.8865 12.5075C13.8865 12.4 13.8438 12.2968 13.7678 12.2208C13.6917 12.1447 13.5886 12.102 13.481 12.102Z" fill="current"/>
<path d="M13.481 8.858H4.95103C4.84349 8.858 4.74035 8.90073 4.66431 8.97678C4.58826 9.05282 4.54553 9.15596 4.54553 9.2635C4.54553 9.37105 4.58826 9.47419 4.66431 9.55023C4.74035 9.62628 4.84349 9.66901 4.95103 9.66901H13.481C13.5886 9.66901 13.6917 9.62628 13.7678 9.55023C13.8438 9.47419 13.8865 9.37105 13.8865 9.2635C13.8865 9.15596 13.8438 9.05282 13.7678 8.97678C13.6917 8.90073 13.5886 8.858 13.481 8.858Z" fill="current"/>
<path d="M4.95201 6.02102H9.42801C9.53555 6.02102 9.63869 5.9783 9.71474 5.90225C9.79078 5.82621 9.83351 5.72306 9.83351 5.61552C9.83351 5.50797 9.79078 5.40483 9.71474 5.32879C9.63869 5.25274 9.53555 5.21002 9.42801 5.21002H4.95201C4.84447 5.21002 4.74131 5.25274 4.66527 5.32879C4.58922 5.40483 4.54651 5.50797 4.54651 5.61552C4.54651 5.72306 4.58922 5.82621 4.66527 5.90225C4.74131 5.9783 4.84447 6.02102 4.95201 6.02102Z" fill="current"/>
<path d="M12.7422 17.9991L18.002 13.0332V2.0015C18.002 1.44974 17.5527 1.00052 17 1.00052H2C1.44922 1.00052 1 1.44974 1 2.0015V17.0025C1 17.5518 1.44922 17.9991 2 17.9991H12.7422ZM13.1406 18.9991H2C0.898438 18.9991 0 18.1035 0 17.0025V2.0015C0 0.89798 0.898438 0.000518799 2 0.000518799H17C18.1035 0.000518799 19.002 0.89798 19.002 2.0015V13.4644L13.1406 18.9991Z" fill="current"/>
</svg>
