<svg width="10" height="5" viewBox="0 0 10 5" fill="none" xmlns="http://www.w3.org/2000/svg">
<path d="M9.2881 5C9.1215 5.00026 8.96008 4.94207 8.83186 4.83555L5.01278 1.63917L1.18681 4.72625C1.11443 4.78997 1.02993 4.83838 0.938384 4.86856C0.846842 4.89874 0.750152 4.91007 0.654126 4.90187C0.558099 4.89367 0.464719 4.86611 0.3796 4.82085C0.294481 4.77559 0.21938 4.71355 0.158812 4.63848C0.0982435 4.56341 0.0534589 4.47685 0.0271501 4.384C0.000841424 4.29115 -0.00644815 4.19393 0.00571964 4.09819C0.0178874 4.00245 0.0492613 3.91016 0.0979553 3.82687C0.146649 3.74358 0.211658 3.67101 0.289073 3.61352L4.5644 0.162105C4.6919 0.0572904 4.85175 8.48307e-07 5.01671 8.77149e-07C5.18167 9.05991e-07 5.34152 0.0572905 5.46902 0.162105L9.74435 3.72972C9.85661 3.82444 9.93722 3.95132 9.97534 4.09329C10.0135 4.23525 10.0073 4.38551 9.95758 4.52384C9.90789 4.66217 9.8171 4.78196 9.69742 4.86708C9.57773 4.95221 9.43489 4.99859 9.2881 5Z" fill="#8C939F"/>
</svg>
